<?xml version="1.0" encoding="utf-8"?>
<!-- Generator: Adobe Illustrator 22.1.0, SVG Export Plug-In . SVG Version: 6.00 Build 0)  -->
<svg version="1.1" id="Layer_1" xmlns="http://www.w3.org/2000/svg" xmlns:xlink="http://www.w3.org/1999/xlink" x="0px" y="0px"
	 viewBox="0 0 1365 1589" style="enable-background:new 0 0 1365 1589;" xml:space="preserve">
<style type="text/css">
	.st0{fill:#DDE1E8;}
	.st1{fill:#009980;}
</style>
<title>Asset 9</title>
<g id="Layer_2_1_">
	<g id="Layer_1-2">
		<rect y="0" class="st0" width="1365" height="1589"/>
		<path class="st1" d="M219.6,960.5c6.1,9,11.2,3.9,12.8-0.2c2.3-6,6.6-9.4,11.1-12.5c7-4.9,8.5-12.5,12.1-19.3
			c7.9-15.1,13.7-24.8,31.5-21.7c9.4,1.6,20.4-4.5,28,3.7c8.4,9.2,21.2,14.2,25.4,27.6c1.7,5.6,7.4,9.4,9.7,15.1
			c1.2,3.1,2.1,6.2,2.9,9.4c1.6,6,6.6,10.7,11.2,15.1c1.9,1.8,2.5-2,3.5-2.4c10.9,8.4,15.7,20.1,20.2,32.1c1.6,4.4,6.3,7.5,8.4,12.2
			c0.8,1.7,2.9,2,4.9,1.8c8.9-0.7,13.6,2.4,17.1,10.6c3.8,8.6,6,17.9,11.5,25.8c1.9,2.9,2.6,6.4,2.1,9.9
			c-1.5,12.8,5.1,23.9,7.6,35.9c0.1,0.8,0.6,1.5,1.2,2c12.3,7.6,10.2,21.1,13.5,32.5c0.6,2,0.4,4.3-0.7,6.1
			c-3.4,6.1-4,12.4-0.8,18.9c1.5,2.9,1.8,6.2,0.7,9.3c-2.6,6.7-1,13.5,1.1,19.4c2.5,7.2,3.7,14.8,6.6,21.8c3.9,9.4-1.2,18-3.8,26.7
			c-2.1,7-6.1,13.3-3.3,21.3c1.6,4.6-3.1,7.2-6.2,9.1c-7.8,4.8-12.4,9.2-9.8,20.3c1.5,6.2-1.1,15.9-8.7,20.8c-2.4,1.6-4.3,4-5.4,6.7
			c-6.1,13.7-15.6,24.9-26.4,34.9c-9,8.3-20.3,12.2-32.7,12.3c-3.2,0-6.3-0.3-9.1,1.8c-12,8.8-25.8,11.6-40.4,11.7
			c-10.8,0.1-13.1,2.6-13.3,13.7c-0.2,10.3-0.5,20.7-0.2,31c0.2,6.4-2.4,9.4-8.4,10c-3.4,0.3-6.8,0.5-10.3,0.5
			c-5.2,0-7.4-2.6-7.5-7.9c-0.1-10.6-0.8-21.2-1.2-31.7c-0.4-10.1-6.2-15.9-16.6-16.1c-3.2-0.1-6.4,0-9.5,0.1
			c-8.2,0.5-15-1.6-20.2-8.4c-2.8-3.7-7.1-5.9-11.7-6c-6-0.3-10.4-3.1-12.6-9c-1.8-4.7-5.5-8.3-10.3-9.1c-7.4-1.3-9.7-6.2-11.2-12.3
			c-3.4-13.3-11.4-23.7-20.6-33.4c-1.3-1.3-2.3-2.8-3-4.5c-2.3-7.3-4.6-14.6-6.4-22c-0.8-3.3-2-7.3-0.9-10.1
			c4.6-11.4-2.2-17.4-10-22.9c-9-6.3-11.4-18.4-3.5-26.1c6.1-6,6.3-12,2.9-18.5c-4.9-9.4-6-19.5-7-29.8c-0.2-2.1-0.8-4.5,1.6-5.6
			c2.7-1.3,4.4,0.6,6.1,2.4c6.5,6.6,8.2,6.3,10.4-2c1.4-5.5,4.4-6.1,8.8-3.4c2,1.2,3.3,3.5,6.9,3.3c4.4-7.2,5.4-14.6,0.8-22.6
			c-8.1-14.1-14.2-28.8-14.6-45.4c-0.3-12-0.4-23.7,8.9-33c1.1-1.1,0.6-2.4,0.6-3.8c0.1-6.2,4.1-7.5,9.1-6.3
			c8.5,2.1,11.9,0.7,12.6-7.7c0.3-6.1,3.5-11.7,8.6-15.1c8.1-5.9,5.4-15.6,6.8-23.5c1.9-11.2,3.2-22.3,12.1-30.4
			C216.4,970.2,218.9,965.6,219.6,960.5z"/>
		<path class="st1" d="M971.4,1115c6,5.6,10.9,2.4,12.5-0.2c2.3-3.7,6.5-5.8,10.8-7.8c6.8-3.1,8.3-7.8,11.8-12
			c7.7-9.4,13.3-15.5,30.8-13.5c9.1,1,19.9-2.8,27.3,2.3c8.2,5.7,20.7,8.8,24.8,17.2c1.7,3.5,7.2,5.9,9.5,9.4
			c1.1,1.9,2.1,3.8,2.8,5.8c1.5,3.8,6.5,6.7,11,9.4c1.8,1.1,2.4-1.2,3.4-1.5c10.6,5.3,15.3,12.5,19.7,20c1.6,2.7,6.2,4.7,8.2,7.6
			c0.7,1.1,2.9,1.2,4.8,1.1c8.7-0.4,13.2,1.5,16.7,6.6c3.7,5.4,5.9,11.2,11.2,16.1c1.7,1.5,2.5,3.9,2,6.2c-1.5,8,5,14.9,7.4,22.4
			c0.2,0.6,0.6,1,1.2,1.3c12,4.7,10,13.2,13.2,20.2c0.6,1.3,0.4,2.8-0.7,3.8c-3.3,3.8-3.9,7.8-0.7,11.8c1.4,1.8,1.9,3.9,0.7,5.8
			c-2.6,4.2-1,8.4,1.1,12.1c2.5,4.5,3.6,9.2,6.5,13.6c3.8,5.9-1.2,11.3-3.7,16.7c-2.1,4.4-6,8.3-3.2,13.3c1.6,2.9-3,4.5-6.1,5.7
			c-7.7,3-12.2,5.7-9.5,12.6c1.5,3.9-1,9.9-8.5,13c-2.1,0.8-4,2.3-5.3,4.2c-6,8.6-15.2,15.5-25.8,21.8c-8.8,5.2-19.8,7.6-31.9,7.7
			c-3.1,0-6.1-0.2-8.9,1.1c-11.7,5.5-25.2,7.2-39.4,7.3c-10.6,0.1-12.8,1.6-13,8.5c-0.2,6.4-0.5,12.9-0.2,19.3
			c0.2,4-2.4,5.9-8.2,6.3c-3.3,0.2-6.7,0.3-10,0.3c-5.1,0-7.2-1.6-7.3-5c-0.1-6.6-0.8-13.2-1.2-19.8c-0.3-6.3-6.1-9.9-16.2-10.1
			c-3.1,0-6.2,0-9.3,0.1c-8,0.3-14.7-1-19.8-5.3c-2.7-2.3-6.6-3.6-11.4-3.7c-5.9-0.2-10.1-1.9-12.3-5.6c-1.8-2.9-5.4-5.2-10.1-5.7
			c-7.2-0.8-9.5-3.9-11-7.7c-3.3-8.3-11.2-14.8-20.1-20.8c-1.2-0.7-2.2-1.7-2.9-2.8c-2.2-4.6-4.4-9.1-6.3-13.8c-0.8-2-2-4.6-0.9-6.3
			c4.5-7.1-2.1-10.9-9.8-14.3c-8.8-3.9-11.1-11.5-3.4-16.3c6-3.7,6.2-7.4,2.8-11.5c-4.8-5.9-5.8-12.2-6.9-18.6
			c-0.2-1.3-0.8-2.8,1.5-3.5c2.6-0.8,4.3,0.4,5.9,1.5c6.3,4.1,8.1,3.9,10.1-1.2c1.4-3.4,4.3-3.8,8.6-2.1c1.9,0.8,3.3,2.2,6.8,2.1
			c4.3-4.5,5.3-9.1,0.8-14.1c-7.9-8.8-13.8-18-14.3-28.3c-0.3-7.5-0.4-14.8,8.7-20.6c1.1-0.7,0.6-1.5,0.6-2.3c0.1-3.9,4-4.7,8.9-3.9
			c8.3,1.3,11.6,0.4,12.3-4.8c0.6-4.2,3.3-7,8.4-9.4c8-3.7,5.3-9.7,6.6-14.6c1.9-7,3.1-13.9,11.9-18.9
			C967.8,1121.1,970.3,1119,971.4,1115z"/>
		<path class="st1" d="M837.7,564.6c-0.3-17.8-0.1-36-3-53.9c-1.6-9.6-5.7-18.6-14.4-22.1c-18.4-7.5-38.6-7-57.9-8.6
			c-17.6-1.5-35.3-1.2-52.9-4.1c-14.7-2.4-29.6-0.9-44.2-0.9c-10.4,0-20.5,0.2-30.8-1.2c-5.5-0.7-11-1.8-16.8-1.1
			c-14.6,1.7-27.9,7.8-41.7,11.8c-6.4,1.9-12.8,1-19.1,3c-10.6,3.5-20.7,8.9-25.9,18.1c-9.3,16.4-10.8,35.4-12.1,53.9
			c-1.7,25.4,4.2,50.4,5,75.7c0.3,9.9,4.8,19,4.3,29.2c-0.6,13,3.8,25.4,10.7,36.3c2.2,3.5,3.9,8.5,7.5,10.3
			c13.8,7.3,27.6,14.4,44.2,14.8c6.4,0.2,13.9-0.5,20.2,3.1c0.5,2.4-1.2,4.9,0.3,7.1c7.7,2,14.2-0.3,19.5-5.8c2.9-3,5.4-2.9,8.5-0.7
			c7.4,5.2,16.6,1.1,24.5,4.1c13.7-14.4,38.1-6.4,54.5-1.5c1.5,0.4,2.8,1.5,3.3,3c2.8-1.2,6-1.4,8.9-0.5c4.1,1.1,10,3.3,13.3,0
			c7.5-7.7,17.8-5.3,26.3-7.1c22-4.6,41.9-10.7,53.6-31.8c3.4-6.2,7-12.6,7.7-19.5c1.8-19.6,4.9-39.1,6.3-58.8
			C838.3,600,838,582.1,837.7,564.6z"/>
		<path class="st1" d="M248.6,325c3.6-4.6,1.9-9.7-1.9-10.8c-6.7-1.8-9.4-4.8-8-11.5c0-0.1-1.2-0.4-1.6-0.8
			c-6.8-7.1-11.3-16.2-12.8-25.9c10.5,1.7,17.7,11.5,28.4,13.4c2.5-4.9-0.6-6-3.6-7.8c-3.8-2.2-9.1-4.1-2.6-9.9c4.1-3.6-1.2-6-3-8.3
			c1.1-3.2,4.8-1.8,6-4.2c-6.6-6.2-6.6-13.7-4.7-22.2c-0.9-1.7-4.9,0-5.2-5.1c8.2,2.1,16.9,4.4,22.6-6c-9-0.1-7.1-9.8-14.9-12.7
			c6.6-2.7,9.1,1.3,13.1,2.8c1.4-3.6,5.4-3.6,8.4-4.5c0.8-8-9.3-10.7-8.8-18.5c5.5-1.6,9.1,3.5,13.6,2.3c3.1-3.5-1.8-6.4-0.2-9.9
			c3-2.8,6.1-0.4,9.4,0.8c-0.5-7.3-11.6-7-9.8-15.9c4.9,0.1,11,0.8,7-7.7c-1.4-2.9,1.8-4.7,5.2-5.7c3.2,5.4,5,12.2,13,12.9
			c-2,8.3-3.6,15.5,0.2,22.1c5,2.2,8-6.2,13.5-0.9c-2.9,3.1-6.2,6.2-7.4,11.5c14.7-7.4,6.3,10.3,14.2,11.5
			c-7.9,3.1-4.3,12.7-10.6,15.6c0.7,4.8,6.4,1.8,6.8,7l-8.2,8.8c11.3-1.2,15.2-13.4,27.5-14.3c-4.5,6.2-9.3,11.2-1.9,16.3l-8.5,4.9
			c3.2,3.4,5.3,6.9,0.6,10c2.1,3,5.2-0.6,7.3,2.7c1,3.5-5.2,3.3-5,7.3c2.2,3.4,5.6-1.3,8.8,1.6l-14.3,15.4l1.1,2.2
			c13.7-0.9,22.1-14.8,34-17.1c-1.7,18.2-19.2,25.8-27.4,43c11.4-7.9,20.3-16,34.5-16.8c-6.3,5.5-10.2,10.3-5.5,17.6
			c3.2,4.9-6,3.9-4.3,8.7c10.8,8.2,10.8,8.2,5,25.6c3.7,1.8,6.2-1,9-2.1s5.5-2.8,9.2-2.3c1.6,2.8-2.9,2.7-2.8,2.9
			c0.7,5.6,5.8,4.4,5.9,7.5c-2,17.7-20,25.1-27.4,41.9c6.7-2.7,10-8,17-6c2.1,9.7,6.7,19.5,5,31l13.6,3.7v23.2
			c5.1,1.5,10.3,3.5,17.2,1.6c-6.5,9.8-12.6,18-20.6,24.5c5.7,7.6,15.7,2.1,23.3,8.1c-2,10.5-19.5,16.8-10.9,31.4
			c8-0.8,12.9-9.1,21.3-9.1c1,11-10.3,12.8-14.6,18.6c0.8,4.8,6.2,3.1,6.6,8L393,550.8c0,2.3,8.3,1.3,2.1,7.3
			c8.2-1.2,15.1-6.5,21.7,2.2c-9.6,3.8-21.5,3.9-28.5,14.2c11.7,1.4,21-4.5,32.2-7.9c-4.1,8.7-15.4,11.7-13,22.9l11.2-6
			c0.3,5.2,4.6,7,8,9.9c-3.7,4.8-8.4,8.3-10.4,14c-1,2.8-2.2,4.8,0,7.4s3.7,1.8,6.1,0.1c3.7-2.6,6.7,1.4,10.4,2.1
			c0.1,3.2,0,5.8-2.5,8.2c-8.4,8.3-8.2,9.2,2,14.7c-0.8,7.1-5.9,11.3-11.1,14.7c-10.6,7-22,12.7-32.6,19.8c-7.3,4.9-16.7,5-24.1,0.2
			c-3.3-2.1-7.3-3.7-11.4-2.4c-5.6,1.8-8.7-0.8-10.5-5.5c-13.6,2.4-27,3.9-40.6,2.7c-2.5,6.5-1.1,12.5-0.4,18.5
			c2.4,20.8-1.5,41.5-1,62.3c0.1,4.1-2.3,6-6.4,6c-4.8-0.1-9.7,0-15.5,0c0.6-9.1,0.6-17.3,1.6-25.3c1.9-14.7,1.1-29.3,1.3-44
			c0-3,0.4-6.2-3-8.1c-3.7-2-4.5,1.7-6.6,3.1c-9.2,6.4-22.1,5.2-31.2-2.8c-3.6-3.2-9.3-4.3-11.6-2c-6.9,6.8-16.5,5.8-24.1,10.4
			c-7.4,4.5-16.7,2-23.3-2.9c-8.4-6.2-17.4-10.9-26.4-15.8c-7.2-3.8-12.9-10-16.1-17.5c21.1-7-3.6-14.8,1.3-23.2
			c4-2,8.5-6.2,13.6,1.7c6.2-12.3-3.6-17.3-7.6-24.9c1.9-3.4,6-5.3,7.2-9.7l11.3,6c-2.2-10.7-2.2-10.7-13.1-23.2
			c10.5,3.3,20.6,8.5,34.9,8.1c-12.6-9.9-28.1-12.8-30.9-29.3c3.7-1.2,7,1.3,10.4,3.5s7.4,4.2,10.7,0.8s0.9-6.3-1.8-9.9
			c-3.7-4.8-5.5-11.1-8.1-16.6c9.5-5.5,9.6-5.5,10.6,1.3c6.9-5.6,12.9,3.6,20.7,0.2c-13.5-2.4-14.6-15.2-21.5-22.9
			c-7.9-8.8-3.1-22.2-13.4-28.7c8.7-9.4,18.9,2,25.9-5.9c-3-10.3-3-10.3-14.4-17.4c6.6-6.2,15.1-3.8,23.1-4.9
			c-13.9-4.5-24.1-12.6-30.7-27.4c13.8,3.4,23.5,14.1,36.7,14.9c1.4-8.9-9-15.4-4.3-24.8c1.4-2.8-0.9-4.2-2.8-4.9
			c-5.4-1.9-7.1-7.1-12.3-12c11.3,0.6,19.6,5.2,30.6,7.4c-8.9-14.6-18.7-27-25.2-42.1c9.8-0.3,15.2,7.8,23.8,10.5
			c0.4-7.5,7-6.9,13-8.7c-15.8-4-19.8-18.2-28.7-28.4c13.4-1.9,24.1,7.8,36.6,6.9c-3.2-5.1-8.6-4.2-12.9-5.9
			c1.5-3.1,4.9-2.9,7.3-5.6c-10.3-0.1-12.3-10.2-19.4-13.4c0.9-5.9,8.8-4.6,7.4-11.2C228.4,316.8,237.9,322.4,248.6,325z"/>
		<path class="st1" d="M919.8,326.8c-3-6.6-3.2-12.3,3.9-17.1c7.7-5.2,4.2-14,4.3-22.4c11.7,1.3,19.7-5.8,28.1-11.9
			c0.6-0.6,1.4-0.9,2.3-0.9c11,2.1,12.8-8.2,18.3-13.5c3.8-3.6,5.2-9.3,10.4-11.6c2.2-1,3.2-3.5,2.3-5.7c-3.4-9.6,4-12.6,10.4-17.7
			c1.2,8.7,8.1,5.8,13.8,8c-0.5-13.6,10-15.2,19.4-18.3c3.6-1.2,6.8-2.5,9.5-5.8s7.4-4.5,10.7-2.6c5.6,3.2,11.7,1.9,17.2,3.4
			c17.8,4.7,35.5,10.7,42,31.1c2.1,6.6,7.7,8,13.1,8.3c9.7,0.5,14.2,5.7,15.2,15.4c8.8-4.3,15.3-3.4,19.5,5.9
			c2.8,6.2,7.8,1,11.1,0.7c4.8,3.2,4.3,8.3,6.3,12.2c2.5,4.7,2.9,10.3,10.8,10.3c4.3,0,6.2,6,8.2,9.9c2.7,5.5,5.6,10.2,11.7,11
			c1.6,3.8-2.2,3.8-3,6c0.7,0.2,1.5,0.7,2.1,0.6c4-0.6,5.8,1.5,6.1,5.1c0.8,10.4,4.8,20.4,11.4,28.5c1.2,1.9,1.3,4.3,0.4,6.4
			c-5.4,9.1-2.1,18,0,27c0.9,3.9-0.9,6.4-3.1,9c-9.5,11-16.8,23.3-23.8,36.1c-5.8,10.8-16.2,18.5-25,27.2
			c-8.2,8.1-19.3,9.4-27.6,16.2c-2.3,1.9-6.9,1.4-10.4,1.4c-8.5,0.1-14.9,4.4-21.8,8.9c-6.3,4-14.7,4.5-22.4,3.6
			c-3.2-0.4-6.4-1.4-9.8-1.5c-12.1-0.1-13,0.2-13.4,12c-0.6,20.3-1.9,40.7-2.9,61c-0.8,17.2,0.4,35-2.8,51.7
			c-2.4,12.5,2,22.9,2.3,34.3c0.1,5.7-1.6,11.4,0.9,17.2c5.8,13.5,4.4,28.5,8.3,42.3c1.4,5.1-0.2,8.2-5.2,9.4
			c-4.3,1-8.8,2.1-13.2,1.9c-12-0.5-13.9-3.9-11.3-15.3c4-17.2,4-34.9,4.7-52.4c1.8-46.3,1.7-92.6,1.1-138.9
			c-0.1-6.1-0.7-12.2-1-18.4c-0.2-5-1.5-6-7.2-5.2c-30,3.9-59.7,4.3-86.2-13.9c-4.5-3-8.6-6.3-10.1-11.8s-7.4-6.3-10.7-9.8
			c-6.2-6.6-11.1-14.4-18.2-20.5c-6.5-5.5-3.7-14.3-3.6-21.3c0.1-5.1-2.3-8.2-5.1-9.3c-11.8-4.6-15-15.9-20.7-25
			c-2.8-4.5,0.7-7.8,5.3-7.8c8.3,0,10.4-5,9-11.4c-1.6-7.3,8.8-8.4,6.8-15.4c-0.2-0.8,1.3-1.9,1.4-2.9
			C910.8,329.6,910.8,329.6,919.8,326.8z"/>
		<path class="st1" d="M624,1377.9c-1.1-2.5-2.1-5.1-2.8-7.7c-3.4-12.7,4.1-27.4-8.8-36.9c-2.3-2-3.2-5.2-2.4-8.1
			c3.3-9.2,0.1-19,2.7-28.8c1.6-5.9,2.4-14.7-0.2-22.2c-2.7-7.7-1.1-14.7,0.9-22.8c3.4-13.8,8.9-27.9,5.8-43c-0.4-2.1-1-4.2-0.2-6.1
			c3.8-8.6,3.4-18.3,5.5-27.2c4-17.1,7-34.5,11.1-51.5c0.7-2.5,1.7-4.9,2.9-7.2c3.3-6.3,4.5-13.4,3.4-20.4
			c-1.2-8.5,0.6-16.1,4.6-24.8c4.6-10,12.5-20.5,9.3-34.3c-1.7-7.5-0.7-15.6-3.6-23.3c-2.5-6.6,0.9-11.6,7.5-12.4
			c7.8-1,10.3-4.3,11-14.2c0.8-13.2,7.9-24.6,17.5-33.2c3-2.7,5.2-0.5,6.8,1.7c8.3,12.3,19.6,22.4,23.9,37.9c1.6,5.8,5,11,9.6,14.8
			c2.7,2.3,5.4,5,5,8.5c-1.7,13.8,8.4,23,10.5,35.3c1.1,6.3,10,7.2,9.8,15.1c-0.3,13.8,6,25.6,9.7,38.1c2.4,8,0.3,16.1-1.8,23.6
			c-4.3,15.4-5.4,29.7,4.7,43.1c2.7,3.5,4.3,8.2,6,12.5c3,7.6,4.2,14.9-0.6,22.6c-3.5,5.6-5.1,11.9-2.3,19.3
			c1.6,4.4,0.6,10,1.6,14.8c2,10,3.2,20.2,9.3,28.8c4,5.7,3.5,13.5,1.9,19.8c-2.2,8.3-3.9,16.9-7.9,24.8c-14.1,28.3-9.5,59-29.5,87
			c-4.7,6.5-13.9,7.2-22,7.3l-44.5,0.6c-10.6,0.1-21.7,0.2-31-4.7C637.8,1399.9,628.9,1388.8,624,1377.9z"/>
	</g>
</g>
</svg>
