<svg xmlns="http://www.w3.org/2000/svg" viewBox="0 0 171.23 436.35"><defs><style>.cls-1{fill:#1e778b;}</style></defs><title>Asset 7</title><g id="Layer_2" data-name="Layer 2"><g id="Layer_1-2" data-name="Layer 1"><path class="cls-1" d="M128.7,436.35c1.44-4.26,2.54-7.58,3.68-10.88a28.77,28.77,0,0,1,1.8-4.69c8.33-14.91,16.08-30.11,21.13-46.47,3.75-12.11,7.14-24.36,10.07-36.7,4.35-18.29,5.81-37,5.84-55.73.13-64.3-14.6-125.3-41.88-183.3C121.72,82.38,114,66,103.92,51.27,92.61,34.79,78.76,20,65.67,4.81,60.18-1.57,56.37-1.36,49.8,4,37.61,14,30.19,27.28,24.39,41.47A208.33,208.33,0,0,0,11.51,86.78q-4.56,27.89-7.6,56c-3.4,31.53-5.63,63.13-2.18,94.86,3.6,33.12,12.63,64.49,29,93.68A281,281,0,0,0,82.48,397.9c10.93,10.39,23.09,19.5,34.72,29.15C120.89,430.11,124.65,433.08,128.7,436.35Z"/></g></g></svg>