<svg xmlns="http://www.w3.org/2000/svg" viewBox="0 0 265.09 201.81"><defs><style>.cls-1{fill:#009d82;}</style></defs><title>Asset 8</title><g id="Layer_2" data-name="Layer 2"><g id="Layer_1-2" data-name="Layer 1"><path class="cls-1" d="M0,3.21c3.85-.33,7.39-.68,10.94-.94C22.13,1.45,33.33.07,44.52,0a208.75,208.75,0,0,1,62,9c23.78,7.2,44.76,19.34,63.73,35.21,18.18,15.2,33.24,33.26,47.65,51.89Q230.7,112.67,242.63,130a155.33,155.33,0,0,1,16.43,30.89c4.2,10.57,7.07,21.51,5.68,33.11-.75,6.26-2.69,8.34-8.9,7.75-14.84-1.4-29.85-2.18-44.38-5.18-13-2.67-25.55-7.49-38-12.23-44.45-17-83.73-42.06-116.75-76.54C47.11,97.71,38.28,87,31.19,74.93c-4.78-8.11-9.27-16.41-13.5-24.82C12,38.76,8.3,26.63,5.08,14.37a21.47,21.47,0,0,0-1.45-3.44C2.54,8.58,1.42,6.24,0,3.21Z"/></g></g></svg>