<svg xmlns="http://www.w3.org/2000/svg" xmlns:xlink="http://www.w3.org/1999/xlink" version="1.1" x="0px" y="0px" viewBox="0 0 512 640" enable-background="new 0 0 512 512" xml:space="preserve"><g><g><path d="M255.997,1C115.169,1,1.002,115.169,1.002,255.997C1.002,396.821,115.167,511,255.994,511    s255.004-114.179,255.004-255.003C510.998,115.169,396.822,1,255.997,1z M363.574,284.049h-82.058v85.796    c-0.005,14.387-11.667,26.049-26.057,26.049c-14.395,0-26.057-11.662-26.057-26.057v-85.788h-79.874    c-14.392-0.005-26.049-11.667-26.057-26.057c0-14.387,11.667-26.054,26.057-26.057l79.872,0.005v-76.144    c0-14.392,11.667-26.057,26.054-26.057c14.395,0,26.062,11.667,26.057,26.057l0.005,76.137l82.05,0.008    c14.392-0.008,26.062,11.662,26.057,26.057C389.628,272.39,377.958,284.049,363.574,284.049z"/></g></g><text x="0" y="527" fill="#000000" font-size="5px" font-weight="bold" font-family="'Helvetica Neue', Helvetica, Arial-Unicode, Arial, Sans-serif">by Abdellah El Falah El Quadmiry</text><text x="0" y="532" fill="#000000" font-size="5px" font-weight="bold" font-family="'Helvetica Neue', Helvetica, Arial-Unicode, Arial, Sans-serif">from the Noun Project</text></svg>